# xmcd
#
# Track frame offsets: 
#        150
#        10563
#        20514
#        31257
#        40724
#        50007
#        60208
#        72542
#        84496
#        94495
#        106821
#        118802
#        131353
#        141019
#        150870
#        162548
#        172570
#        184316
#        196900
#        207900
#        218800
#        227030
#        238951
#        252291
#
# Disc length: 3517 seconds
#
# Revision: 1
# Processed by: cddbd v1.5.2PL0 Copyright (c) Steve Scherf et al.
# Submitted via: ExactAudioCopy v1.1
#
DISCID=3f0dbb18
DTITLE=Various Artist - New Breed Blues With Black Popcorn
DYEAR=2013
DGENRE=R&B
TTITLE0=Carl Lester and The Show Stoppers - When You See Me Hurt (mono)
TTITLE1=Little Johnny Taylor - Somewhere Down The Line (stereo)
TTITLE2=Bobby Mitchell - Well I Done Got Over It (mono)
TTITLE3=Bobby John with Jimmy Thomas, Stacy Johnson and Vernon Guy - I'm
TTITLE3=Comin' Home (mono)
TTITLE4=Marva Josie - You Lied (mono)
TTITLE5=Sinner Strong - Don't Knock It (mono)
TTITLE6=Pat Hunt - I Ain't Talkin' (mono)
TTITLE7=Dolores Johnson - What Kind Of Man Are You (mono)
TTITLE8=The Idols - Just A Little Bit More (mono)
TTITLE9=Tony Gideon - So Strange (mono)
TTITLE10=Harold Burrage - You Ought To Love Me (mono)
TTITLE11=Freddie North - Mr. Lonely (mono)
TTITLE12=Carl Edmondson with the Charmaines - Baby Please Don't Go (mo
TTITLE12=no)
TTITLE13=The Fran-Cettes - Late In The Evening (mono)
TTITLE14=J.J. Jackson and The Jackaels - Oo-Ma-Liddi (mono)
TTITLE15=Hank Blackman and The Killers - Itchy Koo (mono)
TTITLE16=Solid Jackson - East L.A. (mono)
TTITLE17=Adolph Jacobs - Cannibal Stew (mono)
TTITLE18=Etta James - Nobody Loves You Like Me (mono)
TTITLE19=James Wayne - This Little Letter (mono)
TTITLE20=Austin Taylor - Why Oh Why (mono)
TTITLE21=Art Wheeler - Baby We're Through (mono)
TTITLE22=Valerie Carr - Rockin' Bed (mono)
TTITLE23=Mamie Perry with the Gus Jenkins Orchestra - I'm Hurted (mono
TTITLE23=)
EXTD=
EXTT0=
EXTT1=
EXTT2=
EXTT3=
EXTT4=
EXTT5=
EXTT6=
EXTT7=
EXTT8=
EXTT9=
EXTT10=
EXTT11=
EXTT12=
EXTT13=
EXTT14=
EXTT15=
EXTT16=
EXTT17=
EXTT18=
EXTT19=
EXTT20=
EXTT21=
EXTT22=
EXTT23=
PLAYORDER=
